<svg viewBox="0 0 18 22" fill="none" xmlns="http://www.w3.org/2000/svg">
<path fill-rule="evenodd" clip-rule="evenodd" d="M3 21.8787C1.34315 21.8787 0 20.5355 0 18.8787V8.87866C0 8.84477 0.00168633 8.81126 0.00498009 8.77823H0C0 8.20227 0.228801 7.64989 0.636071 7.24262L6.87868 1.00002C8.05025 -0.171555 9.94974 -0.171555 11.1213 1.00002L17.3639 7.24264C17.7712 7.6499 18 8.20227 18 8.77823H17.995C17.9983 8.81126 18 8.84477 18 8.87866V18.8787C18 20.5355 16.6569 21.8787 15 21.8787H3ZM9.7071 2.41423L16 8.70713V18.8787C16 19.4309 15.5523 19.8787 15 19.8787H12V14.8787C12 13.2218 10.6569 11.8787 9 11.8787C7.34315 11.8787 6 13.2218 6 14.8787V19.8787H3C2.44772 19.8787 2 19.4309 2 18.8787V8.7072L8.29289 2.41423C8.68341 2.02371 9.31658 2.02371 9.7071 2.41423Z" fill="currentColor"/>
</svg>
